<svg id="alerts_icon" xmlns="http://www.w3.org/2000/svg" width="30" height="30" viewBox="0 0 30 30">
  <rect id="Rectangle_3361" data-name="Rectangle 3361" width="30" height="30" fill="none"/>
  <path id="Path_16440" data-name="Path 16440" d="M62.629,20.652a10.76,10.76,0,0,1-1.813-5.8v-4.5c.064-4.048-3.484-7.388-7.908-7.447A8.452,8.452,0,0,0,47.2,4.979a7,7,0,0,0-2.432,5.152v4.709a10.786,10.786,0,0,1-1.816,5.811.941.941,0,0,0-.018,1.026,1.133,1.133,0,0,0,.969.518H48.89a4.162,4.162,0,0,0,7.8,0h4.988a1.133,1.133,0,0,0,.967-.518.941.941,0,0,0-.018-1.026m-9.838,2.221a1.879,1.879,0,0,1-1.443-.678h2.884a1.878,1.878,0,0,1-1.441.678m-7.06-2.71a12.606,12.606,0,0,0,1.259-5.308V10.167a5.059,5.059,0,0,1,1.758-3.729,6.03,6.03,0,0,1,4.127-1.5,5.564,5.564,0,0,1,5.718,5.4v4.529a12.528,12.528,0,0,0,1.256,5.3Z" transform="translate(-37.79 1.094)" fill="#919da7"/>
</svg>
