<svg xmlns="http://www.w3.org/2000/svg" xmlns:xlink="http://www.w3.org/1999/xlink" width="150" height="150" viewBox="0 0 150 150">
  <defs>
    <clipPath id="clip-path">
      <rect id="Rectangle_4258" data-name="Rectangle 4258" width="150" height="150" rx="16" fill="none"/>
    </clipPath>
    <clipPath id="clip-path-2">
      <rect id="Rectangle_4257" data-name="Rectangle 4257" width="150" height="150" fill="none"/>
    </clipPath>
  </defs>
  <g id="Group_11208" data-name="Group 11208" transform="translate(0 5)">
    <g id="Group_8186" data-name="Group 8186" transform="translate(0 -5)" clip-path="url(#clip-path)">
      <rect id="Rectangle_4255" data-name="Rectangle 4255" width="150" height="150" fill="#9954f7"/>
      <g id="Group_10062" data-name="Group 10062" transform="translate(47.673 53.22)">
        <path id="Path_315" data-name="Path 315" d="M1.168,0H12.006a2.408,2.408,0,0,1,2.168,1.9L29.549,39.678c-.673,1.231-.81,1.651-1.962,1.914H16.748c-1.2,0-1.7-.791-2.168-1.9L-1,1.9A2.046,2.046,0,0,1,1.168,0Z" transform="translate(12.975 1.968)" fill="#30025d" opacity="0.5"/>
        <path id="Path_316" data-name="Path 316" d="M.516,0H11.355a2.046,2.046,0,0,1,2.168,1.9L1.547,41.664c-.4.962-.971,1.9-2.168,1.9H-11.459a2.046,2.046,0,0,1-2.168-1.9L-1.652,1.9C-1.3.889-.681,0,.516,0Z" transform="translate(13.627)" fill="#30025d"/>
        <path id="Path_317" data-name="Path 317" d="M.516,0H11.355a2.046,2.046,0,0,1,2.168,1.9L1.547,41.664c-.352.988-.971,1.9-2.168,1.9H-11.459a2.046,2.046,0,0,1-2.168-1.9L-1.652,1.9C-1.257.906-.681,0,.516,0Z" transform="translate(41.13)" fill="#30025d"/>
      </g>
    </g>
  </g>
</svg>
