<svg xmlns="http://www.w3.org/2000/svg" xmlns:xlink="http://www.w3.org/1999/xlink" width="100" height="100" viewBox="0 0 100 100">
  <defs>
    <clipPath id="clip-path">
      <rect id="Rectangle_4258" data-name="Rectangle 4258" width="100" height="100" fill="none"/>
    </clipPath>
  </defs>
  <g id="Group_11212" data-name="Group 11212" transform="translate(0 5)">
    <g id="Group_8186" data-name="Group 8186" transform="translate(0 -5)" clip-path="url(#clip-path)">
      <path id="Path_57298" data-name="Path 57298" d="M0,0H100V100H0Z" fill="#9954f7"/>
      <g id="Group_10058" data-name="Group 10058" transform="translate(25.823 30.73)">
        <path id="Path_315" data-name="Path 315" d="M.918,0h9.589a2.131,2.131,0,0,1,1.918,1.678L26.028,35.1c-.6,1.089-.717,1.461-1.736,1.693H14.7c-1.059,0-1.5-.7-1.918-1.678L-1,1.678A1.81,1.81,0,0,1,.918,0Z" transform="translate(11.595 1.741)" fill="#30055d" opacity="0.5"/>
        <path id="Path_316" data-name="Path 316" d="M-1.114,0H8.475a1.81,1.81,0,0,1,1.918,1.678L-.2,36.861c-.353.851-.859,1.678-1.918,1.678h-9.589a1.81,1.81,0,0,1-1.918-1.678l10.6-35.183C-2.721.787-2.173,0-1.114,0Z" transform="translate(13.627)" fill="#30055d"/>
        <path id="Path_317" data-name="Path 317" d="M-1.114,0H8.475a1.81,1.81,0,0,1,1.918,1.678L-.2,36.861c-.311.874-.859,1.678-1.918,1.678h-9.589a1.81,1.81,0,0,1-1.918-1.678l10.6-35.183C-2.683.8-2.173,0-1.114,0Z" transform="translate(37.96)" fill="#30055d"/>
      </g>
    </g>
  </g>
</svg>
