<svg xmlns="http://www.w3.org/2000/svg" xmlns:xlink="http://www.w3.org/1999/xlink" width="75" height="75" viewBox="0 0 75 75">
  <defs>
    <clipPath id="clip-path">
      <rect id="Rectangle_4258" data-name="Rectangle 4258" width="75" height="75" rx="37.5" fill="none"/>
    </clipPath>
    <clipPath id="clip-path-2">
      <rect id="Rectangle_4257" data-name="Rectangle 4257" width="75" height="75" fill="none"/>
    </clipPath>
  </defs>
  <g id="Group_11206" data-name="Group 11206" transform="translate(0 5)">
    <g id="Group_8186" data-name="Group 8186" transform="translate(0 -5)" clip-path="url(#clip-path)">
      <path id="Path_57298" data-name="Path 57298" d="M0,0H75V75H0Z" fill="#9954f7"/>
      <g id="Group_10058" data-name="Group 10058" transform="translate(19.367 23.048)">
        <path id="Path_315" data-name="Path 315" d="M.438,0H7.63A1.6,1.6,0,0,1,9.069,1.259l10.2,25.07c-.446.817-.538,1.1-1.3,1.27H10.777c-.794,0-1.128-.525-1.438-1.259L-1,1.259A1.358,1.358,0,0,1,.438,0Z" transform="translate(8.946 1.306)" fill="#30055d" opacity="0.5"/>
        <path id="Path_316" data-name="Path 316" d="M-4.242,0H2.95A1.358,1.358,0,0,1,4.388,1.259L-3.558,27.646C-3.823,28.284-4.2,28.9-5,28.9h-7.192a1.358,1.358,0,0,1-1.438-1.259L-5.681,1.259C-5.447.59-5.037,0-4.242,0Z" transform="translate(13.627)" fill="#30055d"/>
        <path id="Path_317" data-name="Path 317" d="M-4.242,0H2.95A1.358,1.358,0,0,1,4.388,1.259L-3.558,27.646C-3.792,28.3-4.2,28.9-5,28.9h-7.192a1.358,1.358,0,0,1-1.438-1.259L-5.681,1.259C-5.419.6-5.037,0-4.242,0Z" transform="translate(31.877)" fill="#30055d"/>
      </g>
    </g>
  </g>
</svg>
