<svg xmlns="http://www.w3.org/2000/svg" width="46" height="46" viewBox="0 0 46 46">
  <g id="facebook_icon" transform="translate(-118 -568)">
    <g id="Ellipse_2" data-name="Ellipse 2" transform="translate(118 568)" fill="rgba(255,255,255,0)" stroke="#919da7" stroke-linejoin="round" stroke-width="2">
      <circle cx="23" cy="23" r="23" stroke="none"/>
      <circle cx="23" cy="23" r="22" fill="none"/>
    </g>
    <path id="Forma_1_copy_2" data-name="Forma 1 copy 2" d="M413.551,1945.794l-2.281,0a4.017,4.017,0,0,0-4.218,4.353v2.007h-2.293a.36.36,0,0,0-.359.361v2.908a.36.36,0,0,0,.359.361h2.293v7.337a.36.36,0,0,0,.359.361H410.4a.36.36,0,0,0,.359-.361v-7.337h2.681a.359.359,0,0,0,.359-.361v-2.908a.362.362,0,0,0-.105-.255.358.358,0,0,0-.254-.106h-2.682v-1.7c0-.818.194-1.233,1.253-1.233h1.537a.36.36,0,0,0,.358-.361v-2.7A.36.36,0,0,0,413.551,1945.794Z" transform="translate(-268.141 -1363.526)" fill="#dbdbdb"/>
  </g>
</svg>
