<svg id="Flash_Channel" xmlns="http://www.w3.org/2000/svg" width="24" height="24" viewBox="0 0 24 24">
  <g id="Genre_Hover" data-name="Genre Hover" transform="translate(-6844 -115)">
    <rect id="Rectangle_126" data-name="Rectangle 126" width="24" height="24" transform="translate(6844 115)" fill="none"/>
    <path id="_-e-generes" data-name="-e-generes" d="M13.189,19.984a8.365,8.365,0,0,1-4.02-2.132,8.133,8.133,0,0,1-2.045-3.163c-.1.026-.208.051-.313.074a.686.686,0,0,1-.29,0A8.387,8.387,0,0,1,1.831,11.9,8.078,8.078,0,0,1,0,6.8V1.3A1.329,1.329,0,0,1,1.824.093,13.4,13.4,0,0,0,6.667,1,13.386,13.386,0,0,0,11.508.093,1.329,1.329,0,0,1,13.333,1.3V6.218a13.292,13.292,0,0,0,4.841-.9A1.329,1.329,0,0,1,20,6.523v5.5a8.081,8.081,0,0,1-1.833,5.1,8.386,8.386,0,0,1-4.69,2.857.654.654,0,0,1-.289,0ZM11.5,11.9a8.334,8.334,0,0,1-3.12,2.351,6.9,6.9,0,0,0,4.952,4.422,6.836,6.836,0,0,0,5.333-6.653V6.529h0a14.653,14.653,0,0,1-5.366.995A8.089,8.089,0,0,1,11.5,11.9ZM1.333,6.8a6.837,6.837,0,0,0,5.334,6.653A6.838,6.838,0,0,0,12,6.8V1.307h0a14.729,14.729,0,0,1-10.664,0h0Zm9.738,9.215a.648.648,0,0,1-.35-.857,2.867,2.867,0,0,1,5.225,0,.648.648,0,0,1-.35.857.674.674,0,0,1-.876-.343,1.521,1.521,0,0,0-2.773,0,.671.671,0,0,1-.615.4A.679.679,0,0,1,11.071,16.017Zm3.6-5.155a.653.653,0,1,1,0-1.306h2a.653.653,0,1,1,0,1.306ZM4.054,9.16A.647.647,0,0,1,4.4,8.3a.672.672,0,0,1,.876.342,1.522,1.522,0,0,0,2.774,0A.672.672,0,0,1,8.929,8.3a.647.647,0,0,1,.349.857,2.8,2.8,0,0,1-2.611,1.687A2.806,2.806,0,0,1,4.054,9.16ZM8,5.639A.653.653,0,1,1,8,4.334h2a.653.653,0,1,1,0,1.306Zm-4.667,0a.653.653,0,1,1,0-1.306h2a.653.653,0,1,1,0,1.306Z" transform="translate(6846 117)" fill="#dbdbdb"/>
  </g>
  <rect id="Rectangle_3395" data-name="Rectangle 3395" width="24" height="24" fill="none"/>
</svg>
