<svg id="ic_tv" data-name="ic/tv" xmlns="http://www.w3.org/2000/svg" width="40" height="40" viewBox="0 0 40 40">
  <rect id="ic_home_background" data-name="ic/home background" width="40" height="40" fill="none"/>
  <g id="ic_home_selected" data-name="ic/home/selected">
    <rect id="Rectangle" width="40" height="40" fill="none"/>
    <path id="Fill_1" data-name="Fill 1" d="M26.846,28.184H20.634a1.877,1.877,0,0,1-1.875-1.875V18.781h-4.31v7.528a1.877,1.877,0,0,1-1.875,1.875H6.361a1.877,1.877,0,0,1-1.875-1.875V15.623H1.208a1.208,1.208,0,0,1-.8-2.111L14.8.686a2.708,2.708,0,0,1,3.6,0L32.8,13.512a1.208,1.208,0,0,1-.8,2.111H29.347a.626.626,0,0,0-.625.625V26.309A1.877,1.877,0,0,1,26.846,28.184ZM13.408,16.7H19.8a1.043,1.043,0,0,1,1.041,1.042V26.1h5.8V16.247a2.711,2.711,0,0,1,2.708-2.708H29.7L17.02,2.242a.624.624,0,0,0-.832,0L3.506,13.539H5.362A1.21,1.21,0,0,1,6.57,14.747V26.1h5.8V17.74A1.043,1.043,0,0,1,13.408,16.7Z" transform="translate(3.396 6.19)" fill="#fff"/>
  </g>
</svg>
