<svg id="home_icon_selected" xmlns="http://www.w3.org/2000/svg" width="24" height="24" viewBox="0 0 24 24">
  <rect id="Rectangle_3361" data-name="Rectangle 3361" width="24" height="24" fill="none"/>
  <path id="Path_16438" data-name="Path 16438" d="M19.393,8.533,11.469.607a2.08,2.08,0,0,0-2.937,0L.6,8.529a2.079,2.079,0,0,0,.009,2.938,2.1,2.1,0,0,0,1.442.6L2.08,17.61a2.388,2.388,0,0,0,2.382,2.382h3.1a.858.858,0,0,0,.858-.856V14.57a.667.667,0,0,1,.665-.666h1.828a.667.667,0,0,1,.665.666v4.571a.859.859,0,0,0,.857.859h3.1a2.388,2.388,0,0,0,2.38-2.383V12.076h.01a2.077,2.077,0,0,0,1.47-3.543m-3.2,2.685v6.4a.667.667,0,0,1-.664.666H13.286V14.57a2.389,2.389,0,0,0-2.381-2.382H9.084A2.388,2.388,0,0,0,6.7,14.57v3.713H4.463a.667.667,0,0,1-.667-.666v-6.4a.859.859,0,0,0-.858-.858H2.067A.361.361,0,0,1,1.708,10a.364.364,0,0,1,.113-.26L9.744,1.819A.359.359,0,0,1,10,1.712a.305.305,0,0,1,.26.11l7.916,7.918a.366.366,0,0,1,.029.484l-.058.058a.438.438,0,0,1-.229.079h-.861a.862.862,0,0,0-.858.858" transform="translate(2 2)" fill="#dbdbdb"/>
</svg>
