<svg id="Login_null" data-name="Login null" xmlns="http://www.w3.org/2000/svg" width="38" height="38" viewBox="0 0 38 38">
  <circle id="Mask" cx="19" cy="19" r="19" fill="#0a2238"/>
  <g id="user-3-line" transform="translate(9 9)">
    <path id="Path" d="M0,0H20V20H0Z" fill="none"/>
    <path id="Shape" d="M1.566,17.027H0V15.4a3.991,3.991,0,0,1,3.915-4.054h4.7A3.991,3.991,0,0,1,12.527,15.4v1.621H10.961V15.4a2.394,2.394,0,0,0-2.349-2.432h-4.7A2.394,2.394,0,0,0,1.566,15.4v1.621Zm4.7-7.3A4.683,4.683,0,0,1,2.195,7.3a5.033,5.033,0,0,1,0-4.865A4.684,4.684,0,0,1,6.263,0a4.789,4.789,0,0,1,4.7,4.865A4.789,4.789,0,0,1,6.263,9.729Zm0-8.108A3.193,3.193,0,0,0,3.131,4.865,3.192,3.192,0,0,0,6.263,8.108,3.192,3.192,0,0,0,9.395,4.865,3.193,3.193,0,0,0,6.263,1.621Z" transform="translate(3.375 0.723)" fill="#afb3b8"/>
  </g>
</svg>
