<svg id="Msky_video" xmlns="http://www.w3.org/2000/svg" width="24" height="24" viewBox="0 0 24 24">
  <g id="Movies_Hover" data-name="Movies Hover" transform="translate(-6844 -115)">
    <rect id="Rectangle_126" data-name="Rectangle 126" width="24" height="24" transform="translate(6844 115)" fill="none"/>
    <path id="_-e-Forma_1" data-name="-e-Forma 1" d="M1.34,18.1A1.336,1.336,0,0,1,0,16.767V8.689A1.336,1.336,0,0,1,1.34,7.36H13.11a1.335,1.335,0,0,1,1.34,1.329v1.465l4.421-1.929a.815.815,0,0,1,.765.062A.8.8,0,0,1,20,8.955v7.573a.8.8,0,0,1-.362.666.813.813,0,0,1-.442.13.823.823,0,0,1-.318-.064l-4.427-1.89v1.4A1.336,1.336,0,0,1,13.11,18.1ZM1.608,16.5H12.842V8.954H1.608Zm16.784-1.185v-5.14L14.45,11.9v1.738ZM7.48,3.242a3.271,3.271,0,0,1,6.542,0,3.271,3.271,0,0,1-6.542,0Zm1.609,0a1.662,1.662,0,1,0,1.662-1.648A1.657,1.657,0,0,0,9.089,3.242Zm-9.062,0a3.271,3.271,0,0,1,6.541,0,3.271,3.271,0,0,1-6.541,0Zm1.608,0A1.663,1.663,0,1,0,3.3,1.594,1.657,1.657,0,0,0,1.635,3.242Z" transform="translate(6846 118)" fill="#dbdbdb"/>
  </g>
  <rect id="Rectangle_3368" data-name="Rectangle 3368" width="24" height="24" transform="translate(0)" fill="none"/>
</svg>
