<svg id="Msky_Live" xmlns="http://www.w3.org/2000/svg" width="24" height="24" viewBox="0 0 24 24">
  <g id="TV_Shows_Hover" data-name="TV Shows Hover" transform="translate(-6844 -115)">
    <rect id="Rectangle_126" data-name="Rectangle 126" width="24" height="24" transform="translate(6844 115)" fill="none"/>
    <path id="_-e-tv-show_selected" data-name="-e-tv-show_selected" d="M6939.548,342.73h-6.183l2.2-3.7a.692.692,0,0,0-.221-.934.652.652,0,0,0-.91.227l-2.615,4.4h-1.632l-2.614-4.4a.653.653,0,0,0-.91-.227.691.691,0,0,0-.222.934l2.2,3.7h-6.184a1.473,1.473,0,0,0-1.451,1.489V356.51A1.473,1.473,0,0,0,6922.45,358h17.1A1.473,1.473,0,0,0,6941,356.51V344.219A1.472,1.472,0,0,0,6939.548,342.73Zm-4.01,13.019a.8.8,0,0,1-.79.81h-11.631a.8.8,0,0,1-.789-.81V344.98a.8.8,0,0,1,.789-.81h11.631a.8.8,0,0,1,.79.81Zm2.941-.934a1.742,1.742,0,1,1,1.668-1.74A1.706,1.706,0,0,1,6938.479,354.815Zm-.076-5.3a1.818,1.818,0,1,1,1.744-1.816A1.782,1.782,0,0,1,6938.4,349.514Z" transform="translate(-74.999 -220.999)" fill="#dbdbdb"/>
  </g>
  <rect id="Rectangle_3367" data-name="Rectangle 3367" width="24" height="24" fill="none"/>
</svg>
