<svg id="ui_menu" data-name="ui/menu" xmlns="http://www.w3.org/2000/svg" width="300" height="40" viewBox="0 0 300 40">
  <g id="ic_tv" data-name="ic/tv">
    <rect id="ic_settings_background" data-name="ic/settings background" width="40" height="40" fill="none"/>
    <g id="ic_settings" data-name="ic/settings">
      <rect id="Rectangle_Copy_8" data-name="Rectangle Copy 8" width="39.724" height="39.724" fill="none"/>
      <path id="Fill_1" data-name="Fill 1" d="M15.013,29.793a3.624,3.624,0,0,1-2.648-1.071,3.587,3.587,0,0,1-1.076-2.635,1.329,1.329,0,0,0-.1-.579.6.6,0,0,0-.393-.29,1.442,1.442,0,0,0-.459-.075l-.079,0a.669.669,0,0,0-.451.188,4.047,4.047,0,0,1-2.473,1.115c-.1.007-.2.011-.292.011a3.652,3.652,0,0,1-2.21-.749l-.35-.377-.145-.115a4.476,4.476,0,0,1-.728-1.187,3.422,3.422,0,0,1-.262-1.3,3.5,3.5,0,0,1,.277-1.375,3.591,3.591,0,0,1,.858-1.2,1.027,1.027,0,0,0,.291-.55.769.769,0,0,0-.058-.434.867.867,0,0,0-.276-.347.722.722,0,0,0-.451-.145H3.724A3.625,3.625,0,0,1,1.076,17.6,3.589,3.589,0,0,1,0,14.969a3.576,3.576,0,0,1,1.076-2.65,3.651,3.651,0,0,1,2.648-1.057.982.982,0,0,0,.538-.159.914.914,0,0,0,.334-.333,1.593,1.593,0,0,0,.073-.55.761.761,0,0,0-.189-.463,3.5,3.5,0,0,1-1.237-2.65A3.57,3.57,0,0,1,4.335,4.459a3.43,3.43,0,0,1,2.575-1.1,3.718,3.718,0,0,1,2.662,1.1,2.229,2.229,0,0,0,.524.261.684.684,0,0,0,.214.037.5.5,0,0,0,.252-.066l.233-.115a.556.556,0,0,0,.291-.261.766.766,0,0,0,.088-.347V3.706A3.667,3.667,0,0,1,14.9,0a3.668,3.668,0,0,1,3.725,3.706.836.836,0,0,0,.16.507.311.311,0,0,0,.236.155.221.221,0,0,0,.1-.025.812.812,0,0,0,.363.074l.074,0a.6.6,0,0,0,.437-.217,3.653,3.653,0,0,1,1.265-.826A4.076,4.076,0,0,1,22.723,3.1a3.618,3.618,0,0,1,1.368.26,3.345,3.345,0,0,1,1.105.724l.494.261V4.69a3.647,3.647,0,0,1,.757,2.476,3.538,3.538,0,0,1-1.135,2.36.905.905,0,0,0-.291.535.8.8,0,0,0,.059.448l.116.261a.569.569,0,0,0,.262.26.772.772,0,0,0,.349.087h.263a3.668,3.668,0,0,1,3.724,3.707,3.575,3.575,0,0,1-1.076,2.649,3.65,3.65,0,0,1-2.647,1.057.933.933,0,0,0-.582.159,1.019,1.019,0,0,0-.291.333.741.741,0,0,0-.029.464c.04.179.089.363.146.55a3.5,3.5,0,0,1,1.237,2.65,3.567,3.567,0,0,1-1.091,2.649,3.43,3.43,0,0,1-2.575,1.1,3.718,3.718,0,0,1-2.663-1.1.869.869,0,0,0-.523-.319,1.192,1.192,0,0,0-.126-.007.853.853,0,0,0-.339.066,1.833,1.833,0,0,0-.334.29.659.659,0,0,0-.16.463v.261a3.644,3.644,0,0,1-3.725,3.706ZM10.3,22.612c.251,0,.5.01.728.029a1.292,1.292,0,0,1,.64.232,3.335,3.335,0,0,1,1.528,1.144,2.951,2.951,0,0,1,.6,1.809v.116a1.235,1.235,0,0,0,.334.912,1.207,1.207,0,0,0,.887.333,1.261,1.261,0,0,0,.9-.333,1.206,1.206,0,0,0,.349-.912v-.232a3.3,3.3,0,0,1,.524-1.766,3,3,0,0,1,1.454-1.216,3.06,3.06,0,0,1,1.369-.337,2.933,2.933,0,0,1,.522.048,3.227,3.227,0,0,1,1.717.926,3.037,3.037,0,0,0,.494.377.991.991,0,0,0,.495.115,1.106,1.106,0,0,0,.494-.1,1.526,1.526,0,0,0,.655-.652,1.1,1.1,0,0,0,.1-.492,1.025,1.025,0,0,0-.1-.463,1.992,1.992,0,0,0-.277-.406,4.156,4.156,0,0,1-.989-1.81,2.714,2.714,0,0,1,.233-1.9,3.077,3.077,0,0,1,1.178-1.448,3.272,3.272,0,0,1,1.818-.521,1.437,1.437,0,0,0,1-.333,1.181,1.181,0,0,0,.364-.912,1.168,1.168,0,0,0-.35-.884,1.257,1.257,0,0,0-.9-.333h-.263a3.208,3.208,0,0,1-1.76-.535A3.1,3.1,0,0,1,22.84,11.61l-.117-.347a3.311,3.311,0,0,1-.1-1.766A3.176,3.176,0,0,1,23.45,7.9a1.435,1.435,0,0,0,.48-.97,1.208,1.208,0,0,0-.334-.883,1.613,1.613,0,0,0-.407-.26,1.185,1.185,0,0,0-.466-.087,1.266,1.266,0,0,0-.494.087,1.213,1.213,0,0,0-.378.26,3.809,3.809,0,0,1-1.819.941,3.417,3.417,0,0,1-.645.063A3.349,3.349,0,0,1,18.126,6.8a3.113,3.113,0,0,1-1.455-1.158,3.168,3.168,0,0,1-.524-1.8A1.376,1.376,0,0,0,15.8,2.837a1.231,1.231,0,0,0-.9-.347,1.261,1.261,0,0,0-.9.333,1.169,1.169,0,0,0-.349.883v.261a3.229,3.229,0,0,1-.524,1.751,3.026,3.026,0,0,1-1.455,1.2l-.378.145a3.425,3.425,0,0,1-1.009.151,3.888,3.888,0,0,1-.766-.079,3.031,3.031,0,0,1-1.57-.825,1.448,1.448,0,0,0-.975-.478H6.93a1.173,1.173,0,0,0-.849.362,1.153,1.153,0,0,0,0,1.708,3.672,3.672,0,0,1,.931,1.81A3.418,3.418,0,0,1,5.659,13.13a2.984,2.984,0,0,1-1.818.594H3.724a1.258,1.258,0,0,0-.9.333,1.206,1.206,0,0,0-.349.912,1.169,1.169,0,0,0,.349.883,1.258,1.258,0,0,0,.9.333h.262a3.2,3.2,0,0,1,1.76.536,3.105,3.105,0,0,1,1.207,1.462,2.936,2.936,0,0,1,.29,1.882,3.133,3.133,0,0,1-.9,1.679,1.939,1.939,0,0,0-.393.507,1.121,1.121,0,0,0-.1.478c0,.075,0,.16.015.26a.367.367,0,0,0,.1.232h.116l.262.521a1.213,1.213,0,0,0,.739.247h.046a1.212,1.212,0,0,0,.815-.391,3.358,3.358,0,0,1,1.09-.724A3.277,3.277,0,0,1,10.3,22.612Zm4.6-2.837a4.841,4.841,0,0,1-3.505-1.447,4.875,4.875,0,0,1,0-6.978,4.969,4.969,0,0,1,7.012,0,4.877,4.877,0,0,1,0,6.978A4.842,4.842,0,0,1,14.9,19.775Zm0-7.412a2.475,2.475,0,0,0-1.746,4.227,2.473,2.473,0,0,0,3.492-3.5A2.4,2.4,0,0,0,14.9,12.363Z" transform="translate(4.966 4.966)" fill="#fff"/>
    </g>
  </g>
  <text id="TV_Korea_Copy" data-name="TV Korea Copy" transform="translate(80 5)" fill="#fff" font-size="26" font-family="ProximaNova-Regular, Proxima Nova"><tspan x="0" y="24">Settings</tspan></text>
</svg>
