<svg id="ic_tv" data-name="ic/tv" xmlns="http://www.w3.org/2000/svg" width="40" height="40" viewBox="0 0 40 40">
  <rect id="ic_profile_background" data-name="ic/profile background" width="40" height="40" fill="none"/>
  <g id="ic_profile" data-name="ic/profile">
    <rect id="Rectangle_Copy_7" data-name="Rectangle Copy 7" width="39.724" height="39.724" fill="none"/>
    <path id="Fill_1" data-name="Fill 1" d="M19.53,23.172a1.809,1.809,0,0,1-.966-.274.89.89,0,0,1-.453-.738,8.484,8.484,0,0,0-.576-3.174,7.517,7.517,0,0,0-1.593-2.473,6.989,6.989,0,0,0-2.442-1.6,8.54,8.54,0,0,0-3.155-.565,8.54,8.54,0,0,0-3.155.565,7,7,0,0,0-2.442,1.6,7.5,7.5,0,0,0-1.592,2.473,8.47,8.47,0,0,0-.577,3.174c0,.625-.737,1.012-1.419,1.012a1.33,1.33,0,0,1-.8-.239A.93.93,0,0,1,0,22.16a11.13,11.13,0,0,1,.773-4.2,9.933,9.933,0,0,1,2.154-3.3A9.86,9.86,0,0,1,6.2,12.5a10.846,10.846,0,0,1,4.141-.778,10.846,10.846,0,0,1,4.141.778,9.717,9.717,0,0,1,5.431,5.464,11.13,11.13,0,0,1,.773,4.2A1.022,1.022,0,0,1,19.53,23.172ZM10.345,10.439a5,5,0,0,1-3.67-1.526A5.068,5.068,0,0,1,5.157,5.219,5.067,5.067,0,0,1,6.674,1.526,5,5,0,0,1,10.345,0a5,5,0,0,1,3.671,1.526,5.067,5.067,0,0,1,1.517,3.693,5.068,5.068,0,0,1-1.517,3.694A5,5,0,0,1,10.345,10.439Zm0-7.814a2.484,2.484,0,0,0-1.82.763,2.515,2.515,0,0,0-.758,1.831,2.516,2.516,0,0,0,.758,1.832,2.552,2.552,0,0,0,3.641,0,2.516,2.516,0,0,0,.758-1.832,2.515,2.515,0,0,0-.758-1.831A2.484,2.484,0,0,0,10.345,2.625Z" transform="translate(9.931 8.276)" fill="#fff"/>
  </g>
</svg>
