<svg xmlns="http://www.w3.org/2000/svg" width="262" height="110.414" viewBox="0 0 262 110.414">
  <g id="Group_9260" data-name="Group 9260" transform="translate(7)" opacity="0.8">
    <g id="Group_9255" data-name="Group 9255" transform="translate(0 77.414)">
      <text id="_No_Data_to_Display_" data-name=" No Data to Display " transform="translate(124 26)" fill="#383838" font-size="24" font-family="OpenSans-Bold, Open Sans" font-weight="700" opacity="0.5"><tspan x="-130.453" y="0" xml:space="preserve"> NO DATA TO DISPLAY </tspan></text>
    </g>
    <path id="Icon_awesome-inbox" data-name="Icon awesome-inbox" d="M79.081,29.551,64.364,7.476A6.684,6.684,0,0,0,58.8,4.5H21.4a6.684,6.684,0,0,0-5.561,2.976L1.123,29.551A6.683,6.683,0,0,0,0,33.258V51.285a6.684,6.684,0,0,0,6.684,6.684H73.52A6.684,6.684,0,0,0,80.2,51.285V33.258a6.683,6.683,0,0,0-1.123-3.707ZM22.592,13.411H57.611L69.493,31.234H52.355L47.9,40.146H32.3l-4.456-8.911H10.71L22.592,13.411Z" transform="translate(84 -4.5)" opacity="0.5"/>
  </g>
</svg>
