<svg xmlns="http://www.w3.org/2000/svg" width="362" height="149.469" viewBox="0 0 362 149.469">
  <g id="Group_9259" data-name="Group 9259" transform="translate(7)" opacity="0.8">
    <g id="Group_9255" data-name="Group 9255" transform="translate(0 116.469)">
      <text id="_No_Notifications_to_show_" data-name=" No Notifications to show " transform="translate(174 26)" fill="#383838" font-size="24" font-family="OpenSans-Bold, Open Sans" font-weight="700" opacity="0.5"><tspan x="-180.334" y="0" xml:space="preserve"> NO NOTIFICATIONS TO SHOW </tspan></text>
    </g>
    <g id="Icon_ionic-md-notifications-off" data-name="Icon ionic-md-notifications-off" transform="translate(133.897 0)" opacity="0.5">
      <path id="Path_57309" data-name="Path 57309" d="M24.223,38.851a9.173,9.173,0,0,0,9.139-9.179H15.084A9.173,9.173,0,0,0,24.223,38.851Z" transform="translate(15.879 52.73)"/>
      <path id="Path_57310" data-name="Path 57310" d="M17.78,12.471l.012.016L10.511,5.223,5.2,10.534,19.094,24.45a29.64,29.64,0,0,0-3.536,14V63.69L6.525,72.869v4.565H72.131L80.1,85.44l5.306-5.355-2.667-2.651h.07Z" transform="translate(-5.203 0.561)"/>
      <path id="Path_57311" data-name="Path 57311" d="M58.661,42.387A29.832,29.832,0,0,0,35.745,13.474V10.261a6.831,6.831,0,1,0-13.661,0v3.212a28.988,28.988,0,0,0-9.2,3.892l45.776,45.8Z" transform="translate(11.187 -3.377)"/>
    </g>
  </g>
</svg>
