<svg xmlns="http://www.w3.org/2000/svg" width="250" height="137.417" viewBox="0 0 250 137.417">
  <g id="Group_9261" data-name="Group 9261" transform="translate(6)" opacity="0.8">
    <g id="Group_9255" data-name="Group 9255" transform="translate(0 104.417)">
      <text id="_No_Video_to_show_" data-name=" No Video to show " transform="translate(119 26)" fill="#383838" font-size="24" font-family="OpenSans-Bold, Open Sans" font-weight="700" opacity="0.5"><tspan x="-124.904" y="0" xml:space="preserve"> NO VIDEO TO SHOW </tspan></text>
    </g>
    <path id="Icon_material-videocam-off" data-name="Icon material-videocam-off" d="M83.266,22.01l-16.9,16.9V24.123A4.237,4.237,0,0,0,62.143,19.9H36.036l47.23,47.23ZM8.365,3,3,8.365,14.533,19.9H11.449a4.237,4.237,0,0,0-4.225,4.225V66.368a4.237,4.237,0,0,0,4.225,4.225H62.143a4.094,4.094,0,0,0,2.281-.76L77.9,83.266,83.266,77.9Z" transform="translate(75.867 -3)" opacity="0.5"/>
  </g>
</svg>
