<svg xmlns="http://www.w3.org/2000/svg" width="22" height="22" viewBox="0 0 22 22">
  <g id="On_Demand" data-name="On Demand" transform="translate(-6844 -115.277)">
    <rect id="Rectangle_126" data-name="Rectangle 126" width="22" height="22" transform="translate(6844 115.277)" fill="none"/>
    <g id="Group" transform="translate(6845 118.277)">
      <g id="tv_2_" data-name="tv (2)">
        <path id="Shape" d="M16.25,16a.454.454,0,0,1-.069-.005L11.216,15.2H8.784l-4.965.795A.448.448,0,0,1,3.749,16a.411.411,0,0,1-.41-.334.385.385,0,0,1,.067-.292.415.415,0,0,1,.275-.169l4.651-.743V13.6H1.25A1.227,1.227,0,0,1,0,12.4V1.2A1.227,1.227,0,0,1,1.25,0h17.5A1.23,1.23,0,0,1,20,1.2V12.4a1.227,1.227,0,0,1-1.25,1.2H11.668v.861l4.651.743a.414.414,0,0,1,.274.168.387.387,0,0,1,.068.293A.411.411,0,0,1,16.25,16ZM1.667,1.6V12H18.332V1.6Z" fill="#afb3b8" stroke="#0a2238" stroke-width="0.5"/>
      </g>
      <g id="play_3_" data-name="play (3)" transform="translate(8 4)">
        <path id="Path" d="M4.632,2.443.933.161A.967.967,0,0,0,.448,0C.171,0,0,.2,0,.535V5.466C0,5.8.171,6,.447,6A.958.958,0,0,0,.93,5.838l3.7-2.282A.676.676,0,0,0,5,3,.673.673,0,0,0,4.632,2.443Z" fill="#afb3b8"/>
      </g>
    </g>
  </g>
</svg>
