<svg xmlns="http://www.w3.org/2000/svg" xmlns:xlink="http://www.w3.org/1999/xlink" width="61" height="40" viewBox="0 0 61 40">
  <defs>
    <clipPath id="clip-path">
      <rect id="Rectangle_4262" data-name="Rectangle 4262" width="40" height="40" rx="4" fill="none"/>
    </clipPath>
    <clipPath id="clip-path-2">
      <rect id="Rectangle_4261" data-name="Rectangle 4261" width="40" height="40" fill="none"/>
    </clipPath>
    <clipPath id="clip-path-3">
      <rect id="Rectangle_4260" data-name="Rectangle 4260" width="29.791" height="29.669" fill="none"/>
    </clipPath>
  </defs>
  <g id="Group_2" data-name="Group 2" transform="translate(-94 5)">
    <path id="Polygon_2" data-name="Polygon 2" d="M4.714,1A1,1,0,0,1,6.286,1L9.729,5.382A1,1,0,0,1,8.943,7H2.057a1,1,0,0,1-.786-1.618Z" transform="translate(155 19) rotate(180)" fill="#919da7"/>
    <g id="Group_8194" data-name="Group 8194" transform="translate(94 -5)">
      <g id="Group_8193" data-name="Group 8193" clip-path="url(#clip-path)">
        <rect id="Rectangle_4259" data-name="Rectangle 4259" width="40" height="40" fill="#2cc1d7"/>
        <g id="Group_8192" data-name="Group 8192">
          <g id="Group_8191" data-name="Group 8191" clip-path="url(#clip-path-2)">
            <g id="Group_8190" data-name="Group 8190" transform="translate(10.209 10.331)" opacity="0.3" style="mix-blend-mode: difference;isolation: isolate">
              <g id="Group_8189" data-name="Group 8189">
                <g id="Group_8188" data-name="Group 8188" clip-path="url(#clip-path-3)">
                  <path id="Path_17225" data-name="Path 17225" d="M82.1,66.518c.226,1.216,1.3,2.916.628,4.054-2.748-2.076-4.016-4.589-7.46-6q.292.211.141.141c1.854,1.741,2.151,2,2.721,5.637-.944.123-.324-.226-1.12.147.592-.5-5.633-5.381-5.053-5.925C68,66.193,69.9,66.972,68.071,70.24c.048-.2-3.074-3.223-2.981-3.723-2.578,4.219-.758,4.8.94,8.944.716,1.745,2.227,6.646,2.241,8.24.358.9,4.784,5.4,9.994,10.538H93.6V77.947C88.42,72.814,82.213,66.754,82.1,66.518" transform="translate(-63.805 -64.571)" fill="#e2413e"/>
                </g>
              </g>
            </g>
            <path id="Path_17226" data-name="Path 17226" d="M81.152,69.973q-.19-.414-.387-.824-.117-.245-.237-.488-.169-.341-.342-.679c-.112-.219-.228-.436-.345-.652-.147-.274-.3-.547-.461-.812.074.4.172.795.268,1.189.057.236.121.47.184.7s.127.468.194.7q.078.268.157.535l.048.16.052.17.015.048c0,.014.016.035.008.047l-.056.093-.183.306q-.187.314-.369.63-.158.274-.314.548c-.2.353-.4.71-.591,1.067q-.178.327-.352.656-.148.281-.3.563l-.095.183-.51-.279L77,73.552c-.432-.231-.868-.454-1.305-.674q-.754-.379-1.52-.733c-.376-.174-.755-.343-1.137-.5q-.271-.115-.544-.225.845-.025,1.688-.079c.242-.016.483-.032.724-.051l.645-.053.255-.023a.785.785,0,0,0,.384-.089.452.452,0,0,0,.173-.221.475.475,0,0,0,.02-.231q-.025-.178-.05-.356c-.034-.24-.071-.48-.108-.719s-.076-.481-.117-.722q-.094-.56-.2-1.119-.053-.283-.11-.566c-.059-.3-.12-.594-.185-.89-.008-.034-.014-.07-.024-.1a.3.3,0,0,0-.085-.132.874.874,0,0,0-.164-.1l-.184-.1-.275-.149c-.168-.09-.336-.18-.505-.267q-.371-.192-.746-.377c-.3-.149-.612-.295-.924-.43l-.157-.067c.27.253.553.492.839.726q.33.271.665.535.217.171.437.338l.248.188.1.074.08.059c.009.007.013.007.014.018l0,.026.006.06c.005.056.011.113.016.17.023.245.048.491.075.736s.053.468.081.7c.04.329.082.658.129.986q.056.395.115.789c.018.124.039.248.058.372l-.606.081q-.368.05-.734.107c-.557.086-1.112.179-1.666.284l-.1.019-.049.01-.025,0c-.013,0-.01-.006-.012-.017q-.018-.077-.043-.151a1.616,1.616,0,0,0-.124-.28,1.5,1.5,0,0,0-.379-.447,1.277,1.277,0,0,0-1.093-.242,1.412,1.412,0,0,0-.882.712,1.628,1.628,0,0,0-.119.284q-.011.036-.021.072l-.009.037,0,.019c0,.015,0,.012-.02.009l-.21-.04q-.416-.078-.833-.148-.64-.108-1.283-.2c-.183-.026-.365-.052-.548-.076l-.276-.036q.05-.321.1-.641.056-.375.106-.751.076-.562.141-1.126c.022-.19.043-.381.063-.571q.023-.216.043-.431l.017-.175q.007-.072.013-.144c0-.015.022-.024.034-.033l.04-.03.086-.065q.242-.182.482-.367c.176-.135.35-.273.524-.412q.29-.233.575-.471c.217-.182.433-.367.64-.561-.342.14-.677.3-1.009.462q-.383.187-.763.383-.245.127-.488.257l-.274.148-.294.161a.555.555,0,0,0-.148.1.3.3,0,0,0-.072.137q-.1.447-.188.9c-.037.187-.074.374-.11.561-.07.371-.137.743-.2,1.115-.043.255-.085.51-.125.765q-.045.294-.089.587c-.024.158-.045.316-.068.474a.734.734,0,0,0-.012.172.447.447,0,0,0,.363.4c.045.008.091.01.136.015l.291.027.615.051q.315.025.631.046.843.057,1.688.085l.134,0q-.577.232-1.145.487c-.514.231-1.024.468-1.531.715s-1.016.5-1.519.769c-.224.118-.448.235-.671.356-.168.091-.336.181-.5.274l-.19.1q-.152-.294-.306-.588-.184-.348-.371-.7-.239-.445-.487-.885-.189-.337-.381-.672-.162-.281-.325-.56c-.079-.135-.159-.268-.239-.4l-.074-.124-.052-.085-.026-.043.017-.056.061-.2c.053-.177.106-.353.157-.53q.084-.292.165-.584c.076-.275.149-.551.22-.827.077-.3.15-.6.216-.9.032-.148.065-.3.092-.446-.212.347-.4.706-.6,1.063-.115.214-.225.431-.335.647s-.219.433-.324.651q-.121.251-.241.5t-.237.507a.672.672,0,0,0-.068.183.358.358,0,0,0,.023.186c.039.094.083.187.125.28q.17.378.345.753.128.274.258.548c.148.313.3.624.455.934q.168.338.339.675.192.376.387.75.169.325.343.648l.149.277a.544.544,0,0,0,.458.293.536.536,0,0,0,.28-.067c.033-.019.066-.039.1-.059l.3-.181q.217-.13.432-.264l.518-.322q.521-.328,1.037-.664.709-.463,1.4-.948.568-.4,1.124-.812c.181-.135.361-.271.539-.41a3.2,3.2,0,0,0-.192.339c-.03.06-.057.122-.084.183q-.019.045-.037.09c-.006.014-.025.023-.038.032l-.049.033q-.347.24-.686.49-.683.5-1.344,1.035t-1.3,1.08q-.457.4-.906.8-.226.2-.449.408l-.166.153c-.079.073-.163.143-.236.221a.542.542,0,0,0-.143.3.609.609,0,0,0,.012.207l.076.363c.1.488.214.975.331,1.46q.2.835.434,1.662t.492,1.619c.177.538.366,1.073.583,1.6q.032.078.066.156c0-.284-.007-.569-.021-.852s-.032-.564-.055-.846c-.046-.569-.106-1.136-.177-1.7s-.156-1.134-.248-1.7q-.131-.8-.287-1.591l-.019-.1c0-.02,0-.019.015-.034l.1-.094.248-.236c.138-.131.274-.264.41-.4q.572-.554,1.124-1.13.594-.617,1.167-1.255.435-.486.852-.988c-.029.132-.053.266-.073.4,0,.033-.009.066-.014.1l-.006.05-.038.046-.135.164q-.266.327-.519.664c-.338.448-.661.907-.972,1.373-.207.31-.407.624-.6.939-.1.161-.2.324-.3.486-.023.039-.049.077-.069.117a.462.462,0,0,0-.034.339.773.773,0,0,0,.08.166l.1.172q.38.666.795,1.312.459.717.962,1.4.231.314.475.619c.164.2.331.408.512.6-.073-.269-.167-.533-.263-.8s-.2-.522-.306-.78c-.218-.525-.457-1.041-.708-1.551q-.189-.383-.389-.76-.1-.188-.2-.375l-.068-.125c-.008-.014.021-.047.029-.06.1-.17.2-.342.3-.513q.361-.634.693-1.285c.215-.424.422-.853.616-1.287a10.123,10.123,0,0,0,.141,1.641A13.9,13.9,0,0,0,69,77.6a13.466,13.466,0,0,0,.451,1.331,6.852,6.852,0,0,0,.629,1.26,2.105,2.105,0,0,0,.358.428.77.77,0,0,0,.364.192.83.83,0,0,0,.728-.387,3.509,3.509,0,0,0,.356-.539,7.439,7.439,0,0,0,.329-.676,12.892,12.892,0,0,0,.464-1.267,13.974,13.974,0,0,0,.377-1.5,11.2,11.2,0,0,0,.2-1.65c.006-.138.008-.276.007-.415.227.511.471,1.014.728,1.51.207.4.425.8.648,1.188q.065.114.131.228l.1.167.017.029c.008.013.037.046.029.06q-.4.715-.753,1.451c-.246.511-.481,1.027-.694,1.552-.091.226-.179.453-.261.682s-.164.464-.228.7c.192-.2.369-.42.543-.637s.343-.441.508-.667c.335-.459.652-.931.957-1.41q.395-.619.758-1.258a.989.989,0,0,0,.172-.39.466.466,0,0,0-.067-.278l-.081-.135c-.093-.155-.187-.309-.283-.462-.213-.339-.429-.677-.653-1.009-.313-.464-.637-.922-.976-1.367q-.207-.272-.421-.537-.106-.13-.213-.258a.058.058,0,0,1-.014-.038L73.2,73.45c0-.028-.008-.055-.012-.083q-.013-.085-.028-.171.56.644,1.149,1.262t1.2,1.216q.439.43.886.851c.148.14.3.278.447.417L76.9,77l.067.061s.048.037.047.043c-.039.188-.076.376-.112.564-.107.562-.207,1.126-.3,1.691s-.168,1.134-.234,1.7-.117,1.129-.154,1.7c-.025.382-.044.766-.039,1.149.117-.258.221-.523.322-.788s.2-.534.291-.8c.184-.535.354-1.075.514-1.618s.307-1.086.446-1.633.264-1.071.38-1.609l.072-.335c.008-.037.017-.074.024-.111a.527.527,0,0,0-.039-.312.929.929,0,0,0-.255-.29c-.075-.068-.15-.136-.225-.2-.133-.118-.266-.237-.4-.354q-.389-.339-.781-.674-.648-.55-1.314-1.078c-.443-.35-.891-.693-1.347-1.026q-.343-.25-.692-.492L73,72.464l-.042-.028-.017-.046c-.012-.033-.025-.066-.038-.1a3.752,3.752,0,0,0-.168-.364q-.051-.1-.109-.189c.326.254.659.5.993.741.455.331.919.651,1.386.965s.947.625,1.425.93q.232.148.465.292.264.163.529.326t.527.319a.861.861,0,0,0,.132.07.536.536,0,0,0,.539-.091.586.586,0,0,0,.136-.175q.192-.359.383-.718.163-.308.323-.619t.311-.61c.18-.357.357-.715.53-1.076q.133-.277.264-.555.163-.344.32-.692l.139-.307c.04-.088.08-.177.119-.266a.363.363,0,0,0,0-.3h0" transform="translate(-50.874 -54.24)" fill="#fff"/>
          </g>
        </g>
      </g>
    </g>
  </g>
</svg>
