<svg id="search_icon" xmlns="http://www.w3.org/2000/svg" width="34" height="34" viewBox="0 0 34 34">
  <rect id="Rectangle_3361" data-name="Rectangle 3361" width="34" height="34" fill="none"/>
  <path id="Path_16439" data-name="Path 16439" d="M42.685,21.877,38.229,17.2a9.038,9.038,0,0,0,1.979-5.643,9.162,9.162,0,0,0-8.373-9.1c-.266-.023-.535-.04-.808-.04a9.283,9.283,0,0,0-.938.047,9.14,9.14,0,0,0,.938,18.224,9.286,9.286,0,0,0,1.117-.074,9.169,9.169,0,0,0,4.707-2.02l4.405,4.624a.981.981,0,0,0,1.427-1.346M31.028,18.736a7.178,7.178,0,1,1,7.213-7.178,7.205,7.205,0,0,1-7.213,7.178" transform="translate(-15.876 3.549)" fill="#919da7" stroke="#919da7" stroke-width="0.3"/>
</svg>
