<svg id="Group_10129" data-name="Group 10129" xmlns="http://www.w3.org/2000/svg" width="269.983" height="84" viewBox="0 0 269.983 84">
  <rect id="Rectangle_164" data-name="Rectangle 164" width="269.983" height="84" rx="10" transform="translate(0 0)" fill="#1c1c1c"/>
  <text id="Comedy" transform="translate(77.648 50.293)" fill="#fff" font-size="28" font-family="ProximaNova-Semibold, Proxima Nova" font-weight="600" opacity="0.8"><tspan x="-52" y="0">Comedy</tspan></text>
  <g id="_10-humor" data-name="10-humor" transform="translate(201.154 23.784)" opacity="0.8">
    <path id="Path_563" data-name="Path 563" d="M18.946,0A18.946,18.946,0,1,0,37.892,18.946,18.946,18.946,0,0,0,18.946,0Zm0,34.734A15.788,15.788,0,1,1,34.734,18.946,15.788,15.788,0,0,1,18.946,34.734Z" fill="#fff" stroke="#1c1c1c" stroke-width="0.2"/>
    <ellipse id="Ellipse_41" data-name="Ellipse 41" cx="2.7" cy="2.7" rx="2.7" ry="2.7" transform="translate(10.782 12.991)" fill="#fff"/>
    <ellipse id="Ellipse_42" data-name="Ellipse 42" cx="2.7" cy="2.7" rx="2.7" ry="2.7" transform="translate(21.581 12.991)" fill="#fff"/>
    <path id="Path_564" data-name="Path 564" d="M5.958,13.131a10.209,10.209,0,0,0,8.292,4.124,11.018,11.018,0,0,0,8.135-4.124" transform="translate(4.792 10.562)" fill="none" stroke="#fff" stroke-linecap="round" stroke-width="1.5"/>
  </g>
</svg>
