<svg xmlns="http://www.w3.org/2000/svg" width="269.983" height="84" viewBox="0 0 269.983 84">
  <g id="Group_10131" data-name="Group 10131" transform="translate(0)">
    <g id="Group_509" data-name="Group 509" transform="translate(0 0)">
      <rect id="Rectangle_164" data-name="Rectangle 164" width="269.983" height="84" rx="10" fill="#1c1c1c"/>
      <text id="Horror" transform="translate(61.648 47.33)" fill="#fff" font-size="25" font-family="ProximaNova-Semibold, Proxima Nova" font-weight="600" opacity="0.8"><tspan x="-36" y="0">Horror</tspan></text>
      <g id="ghost" transform="translate(213.861 27.44)" opacity="0.8">
        <path id="Path_565" data-name="Path 565" d="M59.933,0H46.063A12.393,12.393,0,0,0,33.747,12.432l.007,18.315A1.64,1.64,0,0,0,35.926,32.3a1.287,1.287,0,0,1,1.341.308l.014.014a3.269,3.269,0,0,0,4.619,0l.013-.013a1.3,1.3,0,0,1,1.83,0l.014.014a3.269,3.269,0,0,0,4.618,0l.014-.014a1.3,1.3,0,0,1,1.83,0l.014.014a3.269,3.269,0,0,0,4.619,0l.013-.013a1.287,1.287,0,0,1,1.341-.308,1.64,1.64,0,0,0,2.172-1.554l.013-24.834h1.541a2.957,2.957,0,1,0,0-5.913Zm0,3.942H55.159V5.913h1.262l-.013,24.406a3.29,3.29,0,0,0-2.937.9l-.013.013a1.3,1.3,0,0,1-1.83,0l-.014-.014a3.269,3.269,0,0,0-4.618,0l-.014.014a1.3,1.3,0,0,1-1.83,0l-.014-.014a3.269,3.269,0,0,0-4.619,0l-.013.013a1.3,1.3,0,0,1-1.83,0l-.014-.014a3.289,3.289,0,0,0-2.936-.9l-.006-17.888A10.419,10.419,0,0,1,46.064,1.971H59.933a.986.986,0,0,1,0,1.971Z" transform="translate(-33.747 0)" fill="#fff" stroke="#fff" stroke-width="0.3"/>
        <path id="Path_566" data-name="Path 566" d="M116.292,174.734a2.957,2.957,0,1,0,2.957,2.957A2.96,2.96,0,0,0,116.292,174.734Z" transform="translate(-108.106 -163.253)" fill="#fff" stroke="#fff" stroke-width="0.3"/>
        <path id="Path_567" data-name="Path 567" d="M242.217,174.734a2.957,2.957,0,1,0,2.957,2.957A2.96,2.96,0,0,0,242.217,174.734Z" transform="translate(-225.757 -163.253)" fill="#fff" stroke="#fff" stroke-width="0.3"/>
      </g>
    </g>
  </g>
</svg>
