<svg xmlns="http://www.w3.org/2000/svg" width="269.983" height="84" viewBox="0 0 269.983 84">
  <g id="Group_10128" data-name="Group 10128" opacity="0.996">
    <rect id="Rectangle_164" data-name="Rectangle 164" width="269.983" height="84" rx="10" transform="translate(0 0)" fill="#1c1c1c"/>
    <text id="Romance" transform="translate(33.748 50.293)" fill="#fff" font-size="28" font-family="ProximaNova-Semibold, Proxima Nova" font-weight="600" opacity="0.8"><tspan x="0" y="0">Romance</tspan></text>
    <g id="hearts" transform="translate(198.456 25.635)" opacity="0.8">
      <path id="Path_558" data-name="Path 558" d="M39.137,52.688A11.587,11.587,0,0,0,27.513,39.962a11.762,11.762,0,0,0-7.919,3.043,11.762,11.762,0,0,0-7.919-3.043c-9.177,0-15.914,10.26-8.518,20.476a29.857,29.857,0,0,0,6.691,6.468,49.2,49.2,0,0,0,9.589,5.4,1.358,1.358,0,0,0,1.075-.03,37.326,37.326,0,0,0,7.29,4.085,1.351,1.351,0,0,0,1.02-.007,36,36,0,0,0,7.093-4.146,22.577,22.577,0,0,0,4.967-4.988C44.789,61.614,43.614,55.622,39.137,52.688ZM11.675,42.665a9.04,9.04,0,0,1,6.891,3.155,1.352,1.352,0,0,0,2.056,0,9.041,9.041,0,0,1,6.891-3.155A8.891,8.891,0,0,1,36.489,51.5a9.3,9.3,0,0,0-8.447,1.88,9.26,9.26,0,0,0-6.012-2.2c-7.136,0-12.525,8-6.765,16.019C-4.322,55.854,2.637,42.665,11.675,42.665ZM28.293,73.629c-5.461-2.44-12.754-7.386-12.754-13.4a6.426,6.426,0,0,1,6.491-6.345,6.538,6.538,0,0,1,4.985,2.282,1.352,1.352,0,0,0,2.056,0,6.538,6.538,0,0,1,4.985-2.282,6.427,6.427,0,0,1,6.491,6.345C40.545,67.493,30.668,72.525,28.293,73.629Z" transform="translate(0 -39.962)" fill="#fff"/>
    </g>
  </g>
</svg>
