<svg xmlns="http://www.w3.org/2000/svg" width="45.191" height="45.191" viewBox="0 0 45.191 45.191">
  <g id="Icon_feather-settings" data-name="Icon feather-settings" transform="translate(1.5 1.5)">
    <path id="Path_57635" data-name="Path 57635" d="M25.007,19.253A5.753,5.753,0,1,1,19.253,13.5,5.753,5.753,0,0,1,25.007,19.253Z" transform="translate(1.842 1.842)" fill="none" stroke="#a7a7a7" stroke-linecap="round" stroke-linejoin="round" stroke-width="3"/>
    <path id="Path_57636" data-name="Path 57636" d="M36.787,28.349a3.164,3.164,0,0,0,.633,3.49l.115.115a3.838,3.838,0,1,1-5.427,5.427l-.115-.115a3.19,3.19,0,0,0-5.408,2.263v.326a3.836,3.836,0,0,1-7.671,0v-.173a3.164,3.164,0,0,0-2.071-2.9,3.164,3.164,0,0,0-3.49.633l-.115.115a3.838,3.838,0,1,1-5.427-5.427l.115-.115a3.19,3.19,0,0,0-2.263-5.408H5.336a3.836,3.836,0,0,1,0-7.671h.173a3.164,3.164,0,0,0,2.9-2.071,3.164,3.164,0,0,0-.633-3.49l-.115-.115a3.838,3.838,0,1,1,5.427-5.427l.115.115a3.164,3.164,0,0,0,3.49.633h.153a3.164,3.164,0,0,0,1.918-2.9V5.336a3.836,3.836,0,0,1,7.671,0v.173a3.19,3.19,0,0,0,5.408,2.263l.115-.115a3.838,3.838,0,1,1,5.427,5.427l-.115.115a3.164,3.164,0,0,0-.633,3.49v.153a3.164,3.164,0,0,0,2.9,1.918h.326a3.836,3.836,0,0,1,0,7.671h-.173a3.164,3.164,0,0,0-2.9,1.918Z" transform="translate(-1.5 -1.5)" fill="none" stroke="#a7a7a7" stroke-linecap="round" stroke-linejoin="round" stroke-width="3"/>
  </g>
</svg>
